<?xml version="1.0" standalone="no"?>
<!DOCTYPE svg PUBLIC "-//W3C//DTD SVG 20010904//EN"
 "http://www.w3.org/TR/2001/REC-SVG-20010904/DTD/svg10.dtd">
<svg version="1.0" xmlns="http://www.w3.org/2000/svg"
 width="240.000000pt" height="240.000000pt" viewBox="0 0 240.000000 240.000000"
 preserveAspectRatio="xMidYMid meet">
<metadata>
Created by potrace 1.14, written by Peter Selinger 2001-2017
</metadata>
<g transform="translate(0.000000,240.000000) scale(0.100000,-0.100000)"
fill="#000000" stroke="none">
<path d="M629 1825 c-388 -194 -573 -292 -588 -311 -37 -47 -46 -97 -27 -147
22 -58 30 -65 166 -134 l115 -60 5 -169 c5 -157 7 -173 32 -226 15 -32 47 -79
72 -106 l46 -49 0 -127 0 -126 249 0 249 0 64 -30 c86 -40 159 -55 232 -46 48
6 119 38 385 171 360 179 386 198 439 313 24 53 26 69 30 228 l4 171 120 59
c66 32 129 70 139 83 44 56 43 137 -2 195 -14 18 -206 119 -590 311 -313 157
-570 285 -571 284 -2 0 -258 -128 -569 -284z m561 -420 c32 -38 8 -56 -220
-170 l-220 -110 0 -191 0 -192 35 -35 c33 -33 35 -38 35 -106 0 -68 -1 -71
-20 -59 -16 10 -23 10 -37 -4 -16 -16 -18 -16 -35 -1 -17 16 -20 16 -35 0 -16
-15 -18 -15 -35 0 -16 14 -23 15 -39 5 -18 -11 -19 -9 -19 42 0 68 13 105 48
133 l27 23 2 222 2 223 236 118 c130 64 242 117 249 117 8 0 19 -7 26 -15z"/>
</g>
</svg>
